<svg xmlns="http://www.w3.org/2000/svg" xmlns:xlink="http://www.w3.org/1999/xlink" preserveAspectRatio="xMidYMid" width="51" height="40" viewBox="0 0 51 40">
  <defs>
    <style>
      .cls-1 {
        fill: #fff;
        fill-rule: evenodd;
      }
    </style>
  </defs>
  <path d="M49.998,35.764 L35.720,35.764 L35.720,38.981 C35.720,39.544 35.271,39.999 34.718,39.999 L16.226,39.999 C15.672,39.999 15.223,39.544 15.223,38.981 L15.223,35.764 L1.002,35.764 C0.449,35.764 -0.000,35.311 -0.000,34.748 L-0.000,26.089 C0.006,21.106 3.985,17.068 8.896,17.062 L11.602,17.062 C15.128,17.080 18.318,19.193 19.754,22.461 C21.085,21.696 22.589,21.294 24.119,21.296 L26.825,21.296 C28.363,21.294 29.874,21.700 31.209,22.473 C32.647,19.233 35.852,17.062 39.398,17.062 L42.104,17.062 C47.015,17.068 50.994,21.106 51.000,26.089 L51.000,34.748 C51.000,35.311 50.551,35.764 49.998,35.764 ZM2.004,26.089 L2.004,33.732 L9.131,33.732 L9.131,29.237 L6.499,19.533 C3.800,20.552 2.008,23.165 2.004,26.089 ZM11.601,19.096 L8.896,19.096 C8.751,19.096 8.607,19.102 8.464,19.111 L10.133,25.266 L11.805,19.100 C11.737,19.099 11.670,19.096 11.601,19.096 ZM13.785,19.461 L11.135,29.237 L11.135,33.732 L15.223,33.732 L15.223,30.321 C15.222,27.803 16.261,25.400 18.086,23.696 C17.352,21.700 15.772,20.146 13.785,19.461 ZM17.228,30.322 L17.228,37.965 L24.720,37.965 L24.720,32.416 L22.068,23.646 C19.190,24.560 17.231,27.263 17.228,30.322 ZM26.825,23.329 L24.118,23.329 C24.102,23.329 24.086,23.330 24.069,23.330 L25.723,28.797 L27.369,23.353 C27.190,23.338 27.008,23.329 26.825,23.329 ZM29.328,23.809 L26.725,32.416 L26.725,37.965 L33.716,37.965 L33.716,30.321 C33.713,27.442 31.971,24.858 29.328,23.809 ZM36.867,19.590 C35.024,20.334 33.575,21.828 32.872,23.709 C34.688,25.414 35.722,27.810 35.720,30.321 L35.720,33.732 L39.530,33.732 L39.530,26.631 C38.789,26.296 38.248,25.624 38.069,24.821 L36.867,19.590 ZM42.104,19.096 L39.399,19.096 C39.203,19.096 39.010,19.105 38.818,19.122 L40.020,24.361 C40.069,24.611 40.279,24.797 40.532,24.811 C40.541,24.810 40.558,24.810 40.572,24.810 C40.808,24.778 40.997,24.599 41.044,24.363 L42.253,19.100 C42.203,19.099 42.154,19.096 42.104,19.096 ZM48.995,26.089 C48.992,23.061 47.070,20.378 44.233,19.439 L42.996,24.825 C42.812,25.624 42.272,26.290 41.535,26.628 L41.535,33.731 L48.995,33.731 L48.995,26.089 ZM44.207,24.629 L46.100,24.629 C46.653,24.629 47.102,25.085 47.102,25.646 C47.102,26.207 46.653,26.663 46.100,26.663 L44.207,26.663 C43.654,26.663 43.205,26.207 43.205,25.646 C43.205,25.085 43.654,24.629 44.207,24.629 ZM31.290,31.182 L29.397,31.182 C28.844,31.182 28.395,30.726 28.395,30.166 C28.395,29.604 28.844,29.149 29.397,29.149 L31.290,29.149 C31.844,29.149 32.292,29.604 32.292,30.166 C32.292,30.726 31.844,31.182 31.290,31.182 ZM13.585,26.324 C13.032,26.324 12.583,25.868 12.583,25.307 C12.583,24.744 13.032,24.291 13.585,24.291 L15.033,24.291 C15.586,24.291 16.035,24.744 16.035,25.307 C16.035,25.868 15.586,26.324 15.033,26.324 L13.585,26.324 ZM40.695,15.835 L40.695,15.835 C37.653,15.835 35.038,13.649 34.455,10.619 C33.872,7.590 35.487,4.566 38.306,3.406 L38.306,2.823 C38.306,1.263 39.552,-0.001 41.089,-0.001 C42.627,-0.001 43.873,1.263 43.873,2.823 L43.873,3.800 C46.365,5.259 47.581,8.235 46.837,11.055 C46.091,13.876 43.572,15.837 40.695,15.835 ZM36.365,8.916 C37.762,8.667 40.266,7.836 41.629,5.069 C41.323,5.001 41.009,4.966 40.695,4.966 C38.469,4.969 36.604,6.671 36.365,8.916 ZM41.869,2.823 C41.869,2.387 41.520,2.032 41.089,2.032 C40.659,2.032 40.310,2.387 40.310,2.823 L40.310,2.945 C40.437,2.937 40.565,2.931 40.695,2.931 C41.089,2.932 41.482,2.970 41.869,3.045 L41.869,2.823 ZM41.495,8.582 C40.745,9.272 39.886,9.831 38.955,10.233 C38.205,10.557 37.420,10.792 36.616,10.929 C37.254,12.655 38.878,13.799 40.695,13.801 C42.564,13.822 44.232,12.615 44.822,10.814 C43.313,10.351 42.204,9.389 41.495,8.582 ZM43.434,5.954 C43.254,6.324 43.049,6.682 42.820,7.024 C43.271,7.575 44.005,8.301 44.999,8.720 C44.836,7.632 44.278,6.645 43.434,5.954 ZM25.472,20.011 C21.962,20.007 19.118,17.122 19.114,13.560 C19.114,9.997 21.960,7.109 25.472,7.109 C28.983,7.109 31.830,9.997 31.830,13.560 C31.830,17.123 28.983,20.011 25.472,20.011 ZM25.472,9.142 C23.068,9.145 21.120,11.121 21.118,13.560 C21.118,16.000 23.067,17.978 25.472,17.978 C27.876,17.978 29.826,16.000 29.826,13.560 C29.826,11.120 27.876,9.142 25.472,9.142 ZM10.249,15.835 C6.737,15.835 3.890,12.946 3.890,9.384 C3.890,5.820 6.737,2.932 10.249,2.932 C13.760,2.932 16.607,5.820 16.607,9.384 C16.607,9.390 16.607,9.397 16.607,9.403 C16.540,13.009 13.747,15.835 10.249,15.835 ZM10.249,4.966 C7.844,4.966 5.895,6.945 5.895,9.385 C5.895,11.824 7.844,13.801 10.249,13.801 C12.641,13.801 14.552,11.859 14.603,9.374 C14.594,6.940 12.649,4.970 10.249,4.966 Z" class="cls-1"/>
</svg>
