<svg xmlns="http://www.w3.org/2000/svg" xmlns:xlink="http://www.w3.org/1999/xlink" preserveAspectRatio="xMidYMid" viewBox="0 0 42.96 40">
  <path d="M42.746,32.498 C42.530,32.824 42.205,33.041 41.831,33.113 L39.667,33.525 L40.298,33.675 C40.851,33.807 41.275,34.265 41.378,34.841 C41.407,35.003 41.409,35.166 41.386,35.325 L41.251,36.262 C41.195,36.654 40.985,37.012 40.673,37.242 C40.364,37.472 39.973,37.566 39.592,37.494 L34.929,36.625 C34.969,37.424 34.717,38.213 34.217,38.835 C33.626,39.568 32.758,39.989 31.835,39.989 L6.909,39.997 C3.099,39.997 -0.000,37.009 -0.000,33.338 C-0.000,31.562 0.715,29.899 2.017,28.642 L2.017,9.894 C2.017,8.190 3.290,6.768 4.900,6.614 L4.900,5.667 C4.392,5.486 4.040,4.990 4.040,4.417 L4.040,1.313 C4.040,0.582 4.614,-0.011 5.319,-0.011 L10.383,-0.011 C11.089,-0.011 11.663,0.582 11.663,1.313 L11.663,4.417 C11.663,4.989 11.311,5.486 10.802,5.667 L10.802,6.614 C12.413,6.769 13.686,8.193 13.686,9.895 L13.686,11.988 C13.729,11.978 13.772,11.970 13.816,11.962 C14.452,11.848 15.119,11.928 15.716,12.187 C16.194,11.733 16.797,11.423 17.431,11.310 C18.359,11.141 19.344,11.392 20.088,11.992 L22.946,9.020 C23.439,8.509 24.297,8.510 24.787,9.019 C25.409,9.666 25.886,10.418 26.208,11.261 C27.593,10.461 29.309,10.341 30.798,10.958 C30.925,11.010 31.039,11.088 31.138,11.190 C31.238,11.295 31.314,11.416 31.364,11.550 C31.684,12.384 31.801,13.288 31.711,14.183 C33.660,13.953 35.389,15.432 35.607,17.398 C35.609,17.398 35.612,17.398 35.615,17.398 C36.252,17.398 36.875,17.521 37.466,17.766 C37.594,17.819 37.707,17.896 37.802,17.996 C37.900,18.097 37.973,18.214 38.023,18.344 C38.484,19.551 38.496,20.867 38.061,22.074 C38.407,22.319 38.621,22.728 38.621,23.169 C38.621,24.062 38.552,24.957 38.414,25.837 C38.492,25.842 38.570,25.857 38.647,25.877 C39.016,25.981 39.334,26.236 39.522,26.579 L39.973,27.411 C40.051,27.554 40.105,27.705 40.133,27.863 C40.235,28.441 39.996,29.025 39.526,29.352 L38.989,29.725 L41.153,29.311 C41.918,29.167 42.669,29.706 42.811,30.492 L42.973,31.399 C43.041,31.785 42.961,32.175 42.746,32.498 ZM1.728,33.338 C1.728,36.025 4.052,38.211 6.909,38.211 L10.196,38.211 C10.070,37.947 9.980,37.668 9.928,37.374 L9.907,37.254 C9.635,35.734 10.453,34.231 11.850,33.682 L16.050,32.027 C15.692,30.821 14.844,29.784 13.690,29.141 C13.569,29.223 13.434,29.297 13.288,29.364 C13.353,29.527 13.393,29.692 13.406,29.852 C13.437,30.216 13.328,30.564 13.101,30.831 C12.809,31.173 12.374,31.346 11.807,31.346 C11.110,31.346 10.202,31.064 9.380,30.591 C9.242,30.512 9.110,30.430 8.985,30.345 C8.858,30.430 8.726,30.513 8.589,30.591 C7.767,31.064 6.859,31.346 6.162,31.346 C5.597,31.346 5.162,31.173 4.869,30.832 C4.641,30.564 4.532,30.216 4.563,29.852 C4.576,29.692 4.615,29.527 4.681,29.364 C4.534,29.297 4.399,29.223 4.279,29.142 C2.701,30.020 1.728,31.614 1.728,33.338 ZM8.122,21.848 C8.132,21.785 8.144,21.721 8.157,21.658 L3.746,21.658 L3.746,27.080 C3.929,26.798 4.250,26.510 4.801,26.283 C5.443,26.022 6.317,25.893 7.170,25.923 C7.023,25.013 6.949,24.089 6.949,23.169 C6.949,22.475 7.466,21.906 8.122,21.848 ZM6.912,27.703 C6.388,27.703 6.000,27.770 5.726,27.847 C5.886,27.891 6.075,27.930 6.291,27.956 C6.639,28.000 6.925,28.252 7.021,28.599 C7.103,28.894 7.032,29.208 6.838,29.433 C7.109,29.349 7.420,29.220 7.750,29.030 C8.005,28.883 8.239,28.719 8.424,28.555 C8.587,28.412 8.786,28.341 8.985,28.341 C9.183,28.341 9.382,28.412 9.544,28.555 C9.732,28.720 9.966,28.886 10.220,29.031 C10.550,29.220 10.863,29.350 11.131,29.434 C10.937,29.208 10.865,28.894 10.948,28.597 C11.044,28.252 11.330,27.999 11.678,27.956 C11.907,27.928 12.094,27.889 12.246,27.849 C11.971,27.770 11.582,27.703 11.058,27.703 C10.255,27.703 9.668,27.879 9.410,28.029 C9.146,28.182 8.822,28.182 8.560,28.029 C8.302,27.879 7.715,27.703 6.912,27.703 ZM9.934,1.775 L5.768,1.775 L5.768,3.955 L9.934,3.955 L9.934,1.775 ZM6.629,5.741 L6.629,6.599 L9.074,6.599 L9.074,5.741 L6.629,5.741 ZM11.957,12.761 L11.035,12.761 C10.559,12.761 10.171,12.361 10.171,11.869 C10.171,11.376 10.559,10.975 11.035,10.975 L11.957,10.975 L11.957,9.894 C11.957,9.062 11.308,8.385 10.510,8.385 L5.193,8.385 C4.395,8.385 3.746,9.062 3.746,9.894 L3.746,10.975 L7.548,10.975 C8.024,10.975 8.412,11.376 8.412,11.869 C8.412,12.361 8.024,12.761 7.548,12.761 L3.746,12.761 L3.746,19.874 L9.089,19.874 C9.290,19.660 9.511,19.475 9.751,19.321 C9.747,19.304 9.744,19.286 9.741,19.268 C9.525,17.971 10.033,16.654 11.040,15.866 C10.898,14.841 11.235,13.765 11.957,12.988 L11.957,12.761 ZM9.897,21.843 L11.498,21.843 C11.491,21.814 11.485,21.786 11.479,21.758 C11.111,21.554 10.780,21.279 10.508,20.951 C10.222,21.179 10.010,21.490 9.897,21.843 ZM19.665,14.759 C19.665,14.659 19.656,14.559 19.641,14.465 C19.486,13.542 18.617,12.912 17.727,13.068 C17.274,13.150 16.883,13.416 16.628,13.814 C16.498,14.018 16.290,14.161 16.056,14.203 C15.819,14.244 15.577,14.184 15.388,14.038 C15.100,13.814 14.758,13.695 14.400,13.695 C14.305,13.695 14.208,13.704 14.112,13.720 C13.213,13.884 12.606,14.777 12.762,15.711 C12.779,15.807 12.803,15.901 12.835,15.993 L12.835,15.994 C12.986,16.433 12.792,16.909 12.384,17.104 C11.702,17.431 11.316,18.195 11.444,18.961 C11.463,19.076 11.493,19.185 11.532,19.291 C11.582,19.100 11.643,18.910 11.713,18.724 C11.763,18.594 11.837,18.477 11.933,18.376 C12.033,18.274 12.146,18.197 12.271,18.145 C13.720,17.548 15.387,17.696 16.701,18.520 C16.761,18.431 16.830,18.351 16.907,18.280 C16.508,18.085 16.304,17.610 16.461,17.174 C16.648,16.647 17.025,16.229 17.521,15.996 C18.009,15.765 18.555,15.745 19.057,15.937 C19.577,16.137 19.999,16.554 20.215,17.081 C20.337,17.379 20.278,17.698 20.107,17.944 L21.119,17.944 C21.230,17.431 21.447,16.948 21.756,16.528 C21.491,16.031 21.003,15.697 20.453,15.647 C20.005,15.606 19.666,15.225 19.665,14.759 ZM14.293,20.826 C14.456,20.657 14.672,20.564 14.903,20.564 C14.904,20.564 14.904,20.564 14.904,20.564 C15.136,20.564 15.354,20.657 15.517,20.827 L16.494,21.843 L16.960,21.843 C16.821,21.497 16.711,21.144 16.631,20.784 C16.570,20.707 16.505,20.632 16.435,20.561 C15.598,19.691 14.339,19.360 13.218,19.696 C13.021,20.402 13.052,21.154 13.302,21.843 L14.124,21.843 C13.971,21.510 14.028,21.100 14.293,20.826 ZM18.806,19.729 L18.215,19.729 C18.281,20.477 18.512,21.201 18.891,21.843 L19.886,21.843 C19.913,21.803 19.944,21.766 19.977,21.732 L20.416,21.275 C20.326,21.308 20.233,21.335 20.132,21.335 L19.302,21.335 C18.825,21.335 18.437,20.935 18.437,20.442 C18.437,20.143 18.588,19.892 18.806,19.729 ZM18.732,17.944 C18.694,17.889 18.649,17.842 18.623,17.777 C18.591,17.700 18.532,17.642 18.456,17.613 C18.386,17.586 18.308,17.589 18.236,17.621 C18.165,17.654 18.110,17.716 18.082,17.792 C18.063,17.848 18.030,17.894 18.001,17.944 L18.732,17.944 ZM20.832,20.936 C20.939,20.887 21.054,20.860 21.174,20.859 L21.175,20.859 C21.407,20.859 21.624,20.953 21.787,21.122 C21.975,21.318 22.061,21.583 22.036,21.843 L22.193,21.843 C22.350,21.589 22.621,21.433 22.920,21.433 C23.220,21.433 23.491,21.589 23.647,21.843 L23.710,21.843 C23.683,21.583 23.769,21.318 23.958,21.122 C24.122,20.953 24.339,20.859 24.570,20.859 C24.570,20.859 24.571,20.859 24.572,20.859 C24.730,20.860 24.875,20.918 25.008,21.001 C24.885,20.847 24.801,20.657 24.801,20.442 C24.801,20.143 24.953,19.892 25.170,19.729 L20.627,19.729 C20.845,19.892 20.996,20.143 20.996,20.442 C20.996,20.628 20.928,20.792 20.832,20.936 ZM22.367,13.154 C22.167,12.946 22.101,12.663 22.140,12.392 L21.141,13.430 C21.216,13.620 21.274,13.814 21.317,14.014 C21.658,14.125 21.978,14.292 22.267,14.506 C22.244,14.425 22.232,14.341 22.232,14.254 C22.232,13.830 22.526,13.492 22.910,13.402 C22.706,13.385 22.513,13.305 22.367,13.154 ZM22.912,15.128 C22.983,15.216 23.051,15.310 23.113,15.406 C23.243,15.345 23.376,15.293 23.512,15.249 C23.516,15.216 23.522,15.182 23.528,15.148 L23.096,15.148 C23.033,15.148 22.972,15.142 22.912,15.128 ZM23.853,10.611 L23.435,11.046 C23.479,11.039 23.519,11.019 23.564,11.019 C23.564,11.019 23.565,11.019 23.566,11.019 C23.797,11.019 24.015,11.113 24.178,11.281 C24.513,11.628 24.514,12.193 24.180,12.542 L23.593,13.152 C23.493,13.255 23.369,13.320 23.238,13.363 L23.926,13.363 C23.999,13.363 24.070,13.372 24.140,13.391 C24.321,13.059 24.534,12.748 24.776,12.461 C24.600,11.783 24.284,11.151 23.853,10.611 ZM24.560,16.869 C23.857,16.869 23.227,17.298 22.934,17.944 L26.185,17.944 C25.892,17.298 25.262,16.869 24.560,16.869 ZM26.496,21.335 L25.666,21.335 C25.533,21.335 25.410,21.298 25.298,21.242 L25.770,21.734 C25.803,21.766 25.833,21.803 25.860,21.843 L26.906,21.843 C27.285,21.202 27.516,20.478 27.581,19.729 L26.991,19.729 C27.209,19.892 27.360,20.143 27.360,20.442 C27.360,20.935 26.972,21.335 26.496,21.335 ZM29.858,12.508 C28.582,12.110 27.177,12.481 26.238,13.458 C25.782,13.932 25.458,14.517 25.293,15.164 C25.501,15.209 25.705,15.277 25.902,15.360 L27.345,13.861 C27.509,13.690 27.726,13.597 27.958,13.596 C27.958,13.596 27.958,13.596 27.959,13.596 C28.190,13.596 28.407,13.690 28.571,13.859 C28.906,14.204 28.907,14.771 28.573,15.118 L27.299,16.442 C27.375,16.540 27.448,16.641 27.514,16.746 C27.880,16.491 28.293,16.317 28.725,16.240 C28.796,16.227 28.867,16.217 28.939,16.209 C29.126,15.815 29.386,15.451 29.695,15.150 C30.055,14.313 30.112,13.383 29.858,12.508 ZM32.103,15.947 C31.584,15.947 31.098,16.180 30.759,16.581 C31.544,17.019 32.110,17.782 32.318,18.688 C32.787,18.260 33.315,17.933 33.894,17.712 C33.821,16.705 33.045,15.947 32.103,15.947 ZM36.519,19.315 C35.590,19.039 34.578,19.208 33.790,19.762 C33.956,19.977 34.094,20.214 34.203,20.464 L34.219,20.447 C34.382,20.279 34.599,20.185 34.830,20.184 C34.830,20.184 34.831,20.184 34.832,20.184 C35.063,20.184 35.280,20.278 35.444,20.446 C35.779,20.794 35.779,21.358 35.444,21.707 L35.313,21.843 L36.272,21.843 C36.663,21.066 36.752,20.159 36.519,19.315 ZM32.292,23.628 C31.816,23.628 31.428,23.228 31.428,22.736 C31.428,22.243 31.816,21.843 32.292,21.843 L32.745,21.843 C32.750,21.739 32.743,21.636 32.727,21.536 C32.618,20.884 32.098,20.387 31.463,20.329 C31.015,20.288 30.675,19.907 30.674,19.442 C30.674,19.357 30.667,19.271 30.654,19.189 C30.522,18.404 29.790,17.859 29.023,17.999 C28.898,18.021 28.778,18.060 28.666,18.115 C29.065,18.345 29.329,18.786 29.329,19.288 C29.329,20.176 29.163,21.037 28.835,21.851 C29.259,21.909 29.586,22.283 29.586,22.736 C29.586,23.228 29.198,23.628 28.722,23.628 L8.684,23.628 C8.698,24.107 8.735,24.591 8.794,25.071 C9.318,24.950 9.849,25.383 9.849,25.941 L9.849,26.027 C10.957,25.818 12.282,25.923 13.168,26.283 C14.014,26.631 14.318,27.125 14.415,27.520 C15.976,28.359 17.146,29.753 17.665,31.390 L19.114,30.819 C19.328,30.735 19.562,30.741 19.772,30.837 C19.985,30.934 20.148,31.113 20.231,31.338 C20.398,31.797 20.173,32.313 19.730,32.489 L16.283,33.846 L16.471,34.897 C16.558,35.381 16.248,35.847 15.779,35.937 C15.310,36.033 14.856,35.698 14.772,35.221 L14.641,34.493 L12.466,35.351 C11.848,35.595 11.486,36.258 11.606,36.931 L11.628,37.049 C11.748,37.722 12.315,38.210 12.976,38.210 L19.964,38.208 L19.683,36.634 C19.597,36.149 19.907,35.682 20.375,35.593 C20.601,35.552 20.829,35.599 21.019,35.732 C21.211,35.868 21.341,36.072 21.383,36.308 L21.722,38.208 L26.215,38.205 L26.033,37.184 C25.947,36.701 26.257,36.235 26.724,36.144 C26.955,36.103 27.180,36.152 27.370,36.284 C27.562,36.420 27.690,36.624 27.733,36.861 L27.973,38.204 L29.625,38.204 L29.309,36.443 C29.224,35.960 29.534,35.493 30.001,35.402 C30.229,35.361 30.458,35.409 30.646,35.543 C30.839,35.678 30.967,35.883 31.010,36.118 L31.382,38.204 L31.835,38.204 C32.244,38.203 32.628,38.016 32.887,37.693 L32.888,37.692 C33.149,37.368 33.256,36.944 33.182,36.529 L31.922,29.473 C31.849,29.059 31.601,28.701 31.246,28.495 C30.888,28.289 30.466,28.256 30.085,28.407 L25.420,30.245 L25.710,31.868 C25.796,32.353 25.485,32.818 25.017,32.909 C24.967,32.918 24.913,32.923 24.859,32.923 C24.443,32.923 24.086,32.615 24.010,32.192 L23.779,30.893 L23.134,31.146 C22.920,31.232 22.687,31.225 22.475,31.128 C22.262,31.029 22.100,30.852 22.018,30.629 C21.849,30.169 22.074,29.653 22.518,29.477 L29.469,26.738 C30.331,26.399 31.288,26.472 32.092,26.937 C32.718,27.301 33.192,27.865 33.454,28.544 L36.485,26.688 C36.721,25.694 36.856,24.666 36.885,23.628 L32.292,23.628 ZM41.166,31.127 L35.201,32.263 C34.798,32.340 34.396,32.109 34.242,31.719 C34.090,31.330 34.224,30.876 34.562,30.642 L38.328,28.032 L38.167,27.734 L33.843,30.383 L34.623,34.752 L39.587,35.678 L39.635,35.350 L35.215,34.298 C34.817,34.203 34.535,33.829 34.544,33.407 C34.554,32.988 34.851,32.626 35.252,32.549 L41.217,31.413 L41.166,31.127 ZM16.180,16.399 C15.949,16.389 15.736,16.286 15.580,16.108 C15.494,16.011 15.382,15.959 15.256,15.957 C15.128,15.948 15.023,16.001 14.936,16.088 C14.849,16.175 14.800,16.293 14.798,16.419 C14.790,16.903 14.403,17.298 13.934,17.298 L13.920,17.298 C13.443,17.289 13.062,16.881 13.069,16.390 C13.089,15.150 14.065,14.161 15.283,14.171 C15.882,14.181 16.456,14.448 16.858,14.907 C17.177,15.269 17.153,15.834 16.803,16.166 C16.632,16.327 16.410,16.415 16.180,16.399 Z"/>
</svg>
