<svg xmlns="http://www.w3.org/2000/svg" xmlns:xlink="http://www.w3.org/1999/xlink" preserveAspectRatio="xMidYMid" viewBox="0 0 44 40">
  <path d="M25.081,37.621 C24.307,38.308 23.519,39.008 22.717,39.722 C22.519,39.900 22.265,39.997 22.002,39.997 C21.740,39.997 21.486,39.900 21.287,39.722 C20.477,38.999 19.679,38.291 18.897,37.597 C7.924,27.855 -0.002,20.816 -0.002,12.389 C-0.002,5.320 4.806,-0.011 11.184,-0.011 C14.621,-0.011 17.754,1.359 20.247,3.950 C20.892,4.619 21.480,5.355 22.002,6.142 C22.525,5.355 23.113,4.619 23.758,3.950 C26.251,1.359 29.384,-0.011 32.820,-0.011 C35.971,-0.011 38.850,1.312 40.925,3.711 C42.913,6.010 44.007,9.092 44.007,12.389 C44.007,20.812 36.069,27.863 25.081,37.621 ZM32.821,2.233 C29.960,2.233 27.448,3.327 25.352,5.484 C23.775,7.108 23.029,8.755 22.998,8.825 C22.823,9.226 22.432,9.486 22.002,9.486 C21.573,9.486 21.182,9.226 21.006,8.823 C20.976,8.755 20.229,7.108 18.653,5.484 C16.557,3.327 14.044,2.233 11.184,2.233 C6.051,2.233 2.181,6.599 2.181,12.389 C2.181,19.786 9.775,26.530 20.285,35.864 L22.002,37.390 C22.723,36.749 23.436,36.117 24.141,35.492 C34.020,26.739 41.823,19.827 41.823,12.389 C41.823,6.599 37.953,2.233 32.821,2.233 ZM36.504,22.078 C36.320,22.312 36.060,22.460 35.770,22.494 C35.728,22.498 35.687,22.501 35.647,22.501 C35.400,22.501 35.163,22.414 34.968,22.254 C34.497,21.868 34.421,21.160 34.797,20.678 C37.271,17.491 38.423,14.857 38.423,12.389 C38.423,11.141 38.124,9.866 37.580,8.800 C37.301,8.253 37.508,7.573 38.040,7.286 C38.299,7.147 38.593,7.117 38.871,7.208 C39.150,7.297 39.379,7.492 39.515,7.758 L39.515,7.759 C40.229,9.162 40.607,10.762 40.607,12.389 C40.607,15.393 39.303,18.471 36.504,22.078 ZM36.327,6.753 C35.725,6.753 35.235,6.251 35.235,5.631 C35.235,5.013 35.725,4.509 36.327,4.509 C36.929,4.509 37.419,5.013 37.419,5.631 C37.419,6.251 36.929,6.753 36.327,6.753 ZM30.164,24.250 L25.645,24.250 L25.645,28.902 C25.645,29.520 25.154,30.024 24.553,30.024 L19.452,30.024 C18.850,30.024 18.360,29.520 18.360,28.902 L18.360,24.250 L13.841,24.250 C13.240,24.250 12.749,23.747 12.749,23.128 L12.749,17.879 C12.749,17.261 13.240,16.757 13.841,16.757 L18.360,16.757 L18.360,12.105 C18.360,11.486 18.850,10.984 19.452,10.984 L24.553,10.984 C25.154,10.984 25.645,11.486 25.645,12.105 L25.645,16.757 L30.164,16.757 C30.765,16.757 31.255,17.261 31.255,17.879 L31.255,23.128 C31.255,23.747 30.765,24.250 30.164,24.250 ZM29.072,19.000 L24.553,19.000 C23.951,19.000 23.461,18.497 23.461,17.879 L23.461,13.227 L20.544,13.227 L20.544,17.879 C20.544,18.497 20.054,19.000 19.452,19.000 L14.933,19.000 L14.933,22.006 L19.452,22.006 C20.054,22.006 20.544,22.510 20.544,23.128 L20.544,27.780 L23.461,27.780 L23.461,23.128 C23.461,22.510 23.951,22.006 24.553,22.006 L29.072,22.006 L29.072,19.000 Z"/>
</svg>
