<?xml version="1.0" encoding="UTF-8"?>
<!DOCTYPE svg PUBLIC "-//W3C//DTD SVG 1.1//EN" "http://www.w3.org/Graphics/SVG/1.1/DTD/svg11.dtd">
<!-- Creator: CorelDRAW 2019 (64-Bit) -->
<svg xmlns="http://www.w3.org/2000/svg" xml:space="preserve" width="7.3744mm" height="6.6666mm" version="1.1" style="shape-rendering:geometricPrecision; text-rendering:geometricPrecision; image-rendering:optimizeQuality; fill-rule:evenodd; clip-rule:evenodd"
viewBox="0 0 737.44 666.66"
 xmlns:xlink="http://www.w3.org/1999/xlink"
 xmlns:xodm="http://www.corel.com/coreldraw/odm/2003">
 <defs>
  <style type="text/css">
   <![CDATA[
    .fil0 {fill:#C91016}
    .fil1 {fill:#CA1116}
    .fil4 {fill:#CB1417}
    .fil2 {fill:#FA7312}
    .fil6 {fill:#FB7612}
    .fil5 {fill:#FC7712}
    .fil3 {fill:#FC7812}
   ]]>
  </style>
 </defs>
 <g id="Layer_x0020_1">
  <metadata id="CorelCorpID_0Corel-Layer"/>
  <g id="_1351313472960">
   <path class="fil0" d="M22.93 183.87l0 294.18c0,13.46 15.24,8.91 47.55,8.91 6.84,0 8.91,-2.06 8.91,-8.91l0 -264.47c55.75,0 62.4,14.33 62.4,68.36 0,19.54 -5.59,33.48 -15.43,44 -12.31,13.15 -21.59,13.87 -41.03,18.4 0.62,7.39 3.4,21.43 5.95,26.74 112.43,0 134.4,-116.55 85.56,-165.79 -37.59,-37.91 -105.73,-21.42 -153.91,-21.42z"/>
   <path class="fil0" d="M545.94 186.84l0 300.12c35.24,0 53.5,5.05 53.5,-8.91l0 -261.49c45.37,0 76.56,8.16 61.19,84.96 -3.91,19.52 -13.55,31.57 -30.57,37.79 -6.83,2.5 -19.79,3.03 -22.49,8.78 -0.48,1.02 -3.05,22.99 9.7,22.99 135.01,0 136.78,-187.21 20.8,-187.21l-53.49 0c-18.08,0 -21.68,2.97 -38.64,2.97z"/>
   <path class="fil1" d="M247.75 278.96l0 160.47c0,18.84 0.21,24.69 -7.97,35.71l59.98 -0.87c-6.06,-7.44 -5.9,-7.23 -5.9,-19.98l0.28 -160.06c10.65,4.26 6.47,8.09 17.4,17.08 7.39,6.08 14.71,8.28 26.37,8.9 -15.33,-16.98 -45.79,-36.71 -39.97,-71.79l-54.88 0.09c3.95,9.92 4.69,17.19 4.69,30.45z"/>
   <path class="fil1" d="M391.66 320.56c38.43,-1.76 30.46,-23.79 45.99,-25.79l0.39 153.57c-0.01,10.81 0.95,19.07 -6.31,25.48l58.18 1.04c-13.33,-32.03 -8.52,-206.47 -1.71,-226.78l-52.21 0.47c-6.03,15.91 -0.11,30.3 -26.68,57.28 -8.72,8.83 -10.33,7.99 -17.65,14.73z"/>
   <path class="fil0" d="M186.37 611.77l0 -41.6 11.89 0c6.95,0 11.88,4.93 11.88,11.89l0 14.85c0,12.38 -13.32,12.43 -23.77,14.86zm-26.75 -47.54l0 98.06c0,11.56 7.63,8.92 26.75,8.92l0 -47.55c15.31,4.08 6.72,8.56 23.64,32.83 12.01,17.22 17.48,14.72 44.71,14.72 -1.61,-19.36 -6.51,-4.63 -19.71,-21.89 -5.74,-7.5 -13.82,-19.49 -15.94,-28.63 12.97,-17.72 17.82,-4.25 17.82,-38.63 0,-32.29 -46.5,-26.75 -68.35,-26.75 -6.84,0 -8.92,2.08 -8.92,8.92z"/>
   <path class="fil2" d="M391.66 320.56c7.32,-6.74 8.93,-5.9 17.65,-14.73 26.57,-26.98 20.65,-41.37 26.68,-57.28l52.21 -0.47c-6.81,20.31 -11.62,194.75 1.71,226.78l-58.18 -1.04c7.26,-6.41 6.3,-14.67 6.31,-25.48l-0.39 -153.57c-15.53,2 -7.56,24.03 -45.99,25.79zm38.39 -65.38c-12.2,52.4 -48.65,53.22 -53.49,71.33 12.97,10.83 45.88,-9.76 53.49,-14.86l0.38 143.01c-1.47,32.47 -20.59,-1.07 -27.12,23.39 3.48,5.01 0.42,5.95 8.91,5.95l98.07 0c11.35,0 1.08,0.91 8.91,-2.97 -7.1,-26.6 -29.72,6.27 -29.72,-35.67l0 -98.05c0,-34.63 2.97,-57.83 2.97,-92.13 15.67,0 23.13,1.66 26.75,-11.88 -11.39,-6.39 -85.76,-2.96 -104.01,-2.96 -8.33,0 -23.16,14.84 14.86,14.84z"/>
   <path class="fil0" d="M331.98 620.69c0,-33.08 -5.12,-50.52 32.69,-50.52 23.94,0 29.72,24.47 29.72,47.54 0,32.84 -7.74,38.64 -35.66,38.64 -18.85,0 -26.75,-16.99 -26.75,-35.66zm-26.74 -14.86c0,53.51 17.46,65.38 65.38,65.38 15.74,0 29.17,-8.07 36.25,-17.23 31.44,-40.65 5.03,-98.67 -33.29,-98.67 -20.43,0 -40.79,-1.46 -55.76,15.55 -6.27,7.11 -12.58,22.16 -12.58,34.97z"/>
   <path class="fil0" d="M483.54 629.6c0,57.51 75.87,46.32 91.05,25.67 13.34,-18.16 9.99,-65.52 9.99,-91.04 0,-11.55 -7.63,-8.92 -26.74,-8.92 0,29.06 3.27,71.24 -2.98,98.07 -19.26,4.48 -23.32,8.76 -41.6,0 -4.69,-20.15 -2.9,-53.73 -2.72,-77.52 0.17,-22.82 1.71,-20.55 -27,-20.55l0 74.29z"/>
   <path class="fil2" d="M247.75 278.96c0,-13.26 -0.74,-20.53 -4.69,-30.45l54.88 -0.09c-5.82,35.08 24.64,54.81 39.97,71.79 -11.66,-0.62 -18.98,-2.82 -26.37,-8.9 -10.93,-8.99 -6.75,-12.82 -17.4,-17.08l-0.28 160.06c0,12.75 -0.16,12.54 5.9,19.98l-59.98 0.87c8.18,-11.02 7.97,-16.87 7.97,-35.71l0 -160.47zm-34.63 -35.66c3.61,13.54 11.07,11.88 26.74,11.88 0,41.3 3.99,184.09 -2.97,213.96 -17.16,0 -20.26,-4.23 -23.77,8.91 3.48,5.01 0.42,5.95 8.91,5.95l98.07 0c8.37,0 5.5,-1.29 8.91,-5.95 -4.55,-17.05 -10.12,-3.9 -26.74,-11.88 -8.22,-17.13 -2.98,-124.94 -2.98,-154.52 30.97,16.38 30.93,20.8 56.47,14.86 -4.66,-12.87 -50.27,-32.57 -53.49,-71.33 24.81,0 22.63,-1.52 23.78,-11.88 -9.65,-5.41 -108.98,-4.83 -112.93,0z"/>
   <path class="fil0" d="M-3.81 605.83c0,57.08 13.47,65.38 59.43,65.38 47.58,0 38.63,-13.97 38.63,-56.47l-50.52 0 0 11.9 26.75 0 0 29.71c-15.46,0 -52.71,17.62 -48.73,-49.04 3.01,-50.49 21.85,-34.66 63.58,-31.19 5.69,-23.77 7.74,-20.81 -35.65,-20.81 -23.91,0 -53.49,19.17 -53.49,50.52z"/>
   <path class="fil0" d="M254.72 94.73l-26.74 2.97 0 -35.66c24.32,0 37.38,8.88 26.74,32.69zm-26.74 -53.5l0 -20.79c17.91,0 23.77,-1.5 23.77,17.83 0,12.03 -23.77,18.17 -23.77,2.96zm-23.78 -32.67l0 92.11c0,13.45 15.25,8.92 47.55,8.92 32.58,0 43.3,-45.48 8.92,-53.49 0.53,-0.47 1.5,-1.74 1.76,-1.21 0.35,0.73 1.94,-1.23 3.51,-2.43 14.82,-11.35 16.35,-28.02 1.46,-38.73 -16.53,-11.89 -41.42,-5.17 -63.2,-5.17z"/>
   <path class="fil0" d="M323.07 56.1l0 -35.66 11.89 0c13.11,0 21.7,34.91 -11.89,35.66zm-23.78 -47.54l0 101.03c30.71,0 23.78,-1.18 23.78,-41.6 23.36,8.45 6.04,41.6 56.46,41.6 11.37,0 1.09,0.9 8.92,-2.98 -4.54,-12.54 -5.25,-2.73 -20.18,-18.45 -6.57,-6.91 -13.11,-15.92 -15.48,-26.12 23.37,-6.25 33.95,-56.46 -26.74,-56.46 -14.92,0 -13.3,2.65 -26.76,2.98z"/>
   <path class="fil0" d="M649.96 564.23l0 98.06c0,11.56 7.61,8.92 26.74,8.92l0 -101.04c8.26,0 26.74,-1.96 26.74,17.83 0,16.94 -7.63,25.4 -23.77,26.74l0 11.9c69.12,0 62.53,-71.33 11.89,-71.33 -29.01,0 -41.6,-4.03 -41.6,8.92z"/>
   <path class="fil0" d="M444.91 109.59c43.99,0 13.16,-16.26 26.74,-44.58 7.78,2.82 4.64,0.3 10.81,9.99 19.73,31 17.54,34.59 51.6,34.59 11.36,0 1.07,0.9 8.91,-2.98 -3.33,-9.21 -5.41,-5.55 -15.15,-11.59 -14.19,-8.8 -27.82,-33.56 -35.37,-47.84 20.81,-31.07 37.82,-26.44 44.58,-35.66 -16.61,-9.32 -34.85,1.56 -46.73,15.68 -8.79,10.43 -9.87,15.09 -21.62,22.96l0 -41.6 -23.77 0 0 101.03z"/>
   <path class="fil0" d="M123.97 65.01c1.1,-13.26 6.47,-29.51 14.86,-35.66 6.84,29.38 29.12,35.66 -14.86,35.66zm6.03 -55.95c-4.91,20.2 -37.27,83.75 -39.14,91.69 -4.44,18.74 21.28,11.12 24.19,-23.85l41.61 0c2.72,11.73 9.15,20.96 11.88,32.69l23.77 0c-0.26,-11.89 -31.51,-90.55 -38.62,-104.01l-23.69 3.48z"/>
   <path class="fil0" d="M11.04 8.56l0 101.03c31.28,0 23.77,11.37 23.77,-89.15 23.33,0 23.78,0.43 23.78,23.77 0,10.73 -9.34,14.61 -20.81,14.86l0 11.89c62.44,0 64.41,-65.38 2.98,-65.38 -12.59,0 -13.96,2.98 -29.72,2.98z"/>
   <path class="fil0" d="M661.84 35.3c0,36.16 50.52,29.25 50.52,44.57 0,8.03 -1.42,8.19 -2.97,14.86 -41.79,0 -25.68,-3.83 -47.55,-8.92 -4.65,19.41 -7.31,23.78 32.69,23.78 40.82,0 55.38,-43.86 15.79,-60.37 -14.35,-5.98 -26.26,-5.83 -27.67,-22.84 2.38,-1.66 7.33,-5.94 8.91,-5.94 27.05,0 35.66,17.39 35.66,-11.88 -21.86,-3.22 -30.59,-6.93 -51.7,4.75 -8.63,4.78 -13.68,9.88 -13.68,21.99z"/>
   <polygon class="fil0" points="584.58,109.59 649.96,109.59 649.96,97.7 608.35,97.7 608.35,62.04 644.01,62.04 644.01,50.16 608.35,50.16 608.35,20.44 646.98,20.44 646.98,8.56 584.58,8.56 "/>
   <path class="fil3" d="M292.84 225.11c30.19,-59.05 -77.04,-73.5 -52.58,0.77l52.58 -0.77z"/>
   <path class="fil3" d="M437.07 224.65l52.42 1.31c22.85,-72.38 -78.54,-63.77 -52.42,-1.31z"/>
   <polygon class="fil0" points="397.36,109.59 421.13,109.59 421.13,8.56 397.36,8.56 "/>
   <path class="fil4" d="M437.07 224.65c-26.12,-62.46 75.27,-71.07 52.42,1.31l-52.42 -1.31zm-12.97 -19.98c0,12.79 3.48,16.11 5.95,26.75 14.9,0 29.8,-0.09 44.7,0.12 20.68,0.27 24.18,1.36 27.17,-17.55 9.19,-58.2 -77.82,-57.6 -77.82,-9.32z"/>
   <path class="fil4" d="M292.84 225.11l-52.58 0.77c-24.46,-74.27 82.77,-59.82 52.58,-0.77zm-64.86 -23.41c0,14.43 0.32,18 5.94,29.72l65.37 0c3.35,-14.36 5.95,-5.65 5.95,-26.75 0,-47.01 -77.26,-44.88 -77.26,-2.97z"/>
   <path class="fil5" d="M356.5 267.09c-27.79,16.22 0.11,50.33 22.33,34.86 19.07,-13.29 3.79,-50.11 -22.33,-34.86z"/>
   <path class="fil4" d="M356.5 267.09c26.12,-15.25 41.4,21.57 22.33,34.86 -22.22,15.47 -50.12,-18.64 -22.33,-34.86zm-18.57 14.85c0,10.99 -0.3,17.35 8.22,24.46 44.25,36.88 73.46,-51.22 18.52,-51.22 -14.68,0 -26.74,12.06 -26.74,26.76z"/>
   <path class="fil4" d="M357.77 356.21c-6.3,-6.06 -6.61,-4.94 -9.79,-14.63l37.5 0.27c-3.76,14.53 -10.04,15.59 -27.71,14.36zm-16.87 -14.84c0,16.77 10.81,23.76 26.74,23.76 13.51,0 15.51,-6.34 23.77,-11.88l0 -20.8c-33.8,0 -50.51,-4.79 -50.51,8.92z"/>
   <path class="fil6" d="M357.77 356.21c17.67,1.23 23.95,0.17 27.71,-14.36l-37.5 -0.27c3.18,9.69 3.49,8.57 9.79,14.63z"/>
  </g>
 </g>
</svg>
